<?xml version="1.0" standalone="no"?>
<!DOCTYPE svg PUBLIC "-//W3C//DTD SVG 20010904//EN"
 "http://www.w3.org/TR/2001/REC-SVG-20010904/DTD/svg10.dtd">
<svg version="1.0" xmlns="http://www.w3.org/2000/svg"
 width="368.000000pt" height="368.000000pt" viewBox="0 0 368.000000 368.000000"
 preserveAspectRatio="xMidYMid meet">
<metadata>
Created by potrace 1.14, written by Peter Selinger 2001-2017
</metadata>
<g transform="translate(0.000000,368.000000) scale(0.100000,-0.100000)"
fill="#000000" stroke="none">
<path d="M754 3577 c-102 -70 -144 -108 -144 -127 0 -10 4 -20 8 -22 11 -4
162 -217 162 -228 0 -4 4 -10 9 -12 5 -1 53 -61 107 -133 53 -71 101 -131 106
-133 4 -2 8 -8 8 -14 0 -8 45 -69 85 -114 6 -7 18 -24 29 -38 16 -23 118 -156
238 -313 22 -29 37 -57 33 -63 -4 -6 -1 -9 6 -8 13 3 58 -67 49 -75 -3 -3 -34
-8 -70 -11 -91 -9 -134 -14 -305 -32 -82 -8 -172 -17 -200 -19 -206 -15 -552
-57 -564 -70 -12 -12 -12 -28 -2 -102 7 -48 15 -119 17 -158 8 -119 3 -111 96
-124 46 -5 169 -13 273 -16 105 -3 233 -8 285 -10 52 -2 165 -7 250 -10 85 -4
184 -10 220 -15 36 -4 103 -11 149 -15 120 -10 126 -17 135 -170 4 -66 9 -138
11 -160 2 -22 6 -85 9 -140 4 -55 8 -118 11 -140 3 -22 7 -85 10 -140 2 -55 7
-127 10 -160 3 -33 8 -87 11 -120 3 -33 7 -91 10 -130 20 -339 30 -435 47
-436 7 -1 28 -3 47 -5 19 -2 54 -5 77 -7 l42 -4 1 246 c0 136 2 256 4 267 2
12 7 259 10 550 4 291 9 557 12 591 5 56 8 62 35 74 39 16 114 90 155 155 27
42 53 130 46 156 -3 12 151 168 165 168 7 0 13 4 13 8 0 4 33 35 73 69 90 76
149 126 207 178 49 44 241 210 278 241 13 10 38 33 57 49 72 66 179 150 187
147 5 -1 7 2 4 7 -4 5 3 16 13 24 26 18 136 120 145 135 11 18 -15 55 -115
165 l-46 50 -49 -32 c-26 -18 -57 -37 -68 -42 -12 -5 -61 -36 -111 -69 -49
-33 -101 -66 -115 -73 -14 -6 -34 -20 -45 -30 -10 -9 -25 -15 -32 -13 -7 3
-13 0 -13 -7 0 -7 -21 -24 -47 -37 -26 -14 -52 -28 -58 -33 -35 -25 -127 -84
-240 -152 -71 -43 -132 -81 -135 -85 -3 -3 -45 -30 -95 -60 -202 -120 -223
-142 -281 -298 -28 -74 -51 -112 -69 -112 -6 0 -66 69 -133 153 -67 83 -130
161 -140 172 -11 11 -36 43 -57 70 -20 28 -45 58 -55 67 -10 10 -31 34 -47 55
-15 21 -36 47 -46 58 -10 11 -39 46 -63 78 -24 33 -44 55 -44 51 0 -5 -8 3
-17 16 -19 28 -126 162 -160 199 -12 14 -19 29 -16 34 3 6 2 7 -4 4 -5 -3 -20
8 -34 26 -49 66 -162 197 -170 197 -5 0 -9 6 -9 13 0 8 -9 22 -20 32 -11 10
-20 24 -20 30 0 11 -31 25 -50 25 -3 -1 -32 -20 -66 -43z"/>
</g>
</svg>
